<svg id="b549463a-ecab-43fc-bde4-c9a452b9f4f4" data-name="Layer 1" xmlns="http://www.w3.org/2000/svg" viewBox="0 0 986.22 511.3">
  <title>logo2</title>
  <g id="f7047eec-ceb9-4b95-af3c-ddcca9208f41" data-name="Page-1">
    <g id="1301a837-fe2c-4865-8357-b79b622ab122" data-name="Top-Copy">
      <g id="631bc0ed-dbf5-4515-b53f-3ea4842fadb5" data-name="B">
        <path d="M960.61,121.26q0,76.83-87.37,108.46,31.63,9.79,52,21.84,61,35.4,61,106.2,0,69.29-53.47,110.34t-143.1,41q-32.39,0-82.09-3.77t-73.06-3.77a310,310,0,0,0-38.41,2.26l-35.4,4.52a31.73,31.73,0,0,0-5.27.75h-5.27q-32.39-.75-32.39-27.12,0-24.1,23.35-24.1,6,0,20.34,2.26a109,109,0,0,0,15.82,1.51q38.41,0,38.41-55.74V103.19q0-56.49-38.41-56.49a97.8,97.8,0,0,0-15.82,1.51q-13.56,2.26-20.34,2.26-23.35,0-23.35-24.1Q517.75,0,552.4,0h9.79l36.91,5.27Q614.91,7.53,642,7.53q28.62,0,81.34-4.52,35.4-3,76.07-3Q875.5,0,918.06,32T960.61,121.26ZM672.15,153.65q0,39.92,7.16,49.33t39.54,9.41H761q133.31,0,133.31-86.62,0-79.09-110-79.09-76.82,0-94.52,9.79T672.15,107Zm0,152.9v83.6q0,49,16.57,60.26t90.38,11.3q140.84,0,140.84-105.45,0-97.16-135.57-97.16H721.86q-40.67,0-46.7,18.08Q672.15,286.22,672.15,306.55Z" fill="#16c800"/>
      </g>
      <g id="44a1618a-ab21-427b-8118-098725ee5180" data-name="R">
        <path d="M57.48,228.75q21.93,10.57,56,18.12-44.62,8.3-61.64,33.21t-17,82.27v34.72c.5,2-16.09,82-16.09,86,0,36.23,14.08,27.17,43.32,27.17,38.63,0,36.28-16.21,33.28-27.17s0-3.15,0-24.15l.76-61.14-.76-25.66V355.56q0-50.57,19.29-66.8t79.79-16.23h70.34q24.2,0,24.2,29.44v58.12q0,55.86-1.51,63.4-6.81,37.74-37.82,37.74-10.59,0-15.88-1.51-12.86-2.26-19.66-2.26-24.2,0-24.2,25.66,0,27.17,32.52,27.17l11.34-1.51,40.84-5.28a329.83,329.83,0,0,1,41.6-3,434.58,434.58,0,0,1,52.94,3.77l36.3,4.53q12.1,1.51,11.34,1.51,32.52,0,32.52-27.17,0-24.15-23.45-24.15-3.78,0-20.42,1.51a60.48,60.48,0,0,1-15.88,2.26q-38.57,0-38.57-56.61V103.45q0-56.61,38.57-56.61a129.39,129.39,0,0,1,18.15,1.89,129.39,129.39,0,0,0,18.15,1.89,22.06,22.06,0,0,0,16.64-7.17,23.84,23.84,0,0,0,6.81-17Q449.25,0,416,0q-3,0-10.59.75L366.82,4.57Q351.69,6.08,329,6.08q-23.45,0-52.19-1.51l-57.48-3Q190.59,0,166.39,0,0,0,0,126.85,0,201.58,57.48,228.75ZM267,222H195.89q-63.53,0-95.3-18.12Q62,182,62,130.63q0-86,118-86,62.77,0,85.09,9.44t23.07,37.36l.76,24.15v86.8q0,12.83-4.54,16.23T267,222Z" fill="#16c800"/>
      </g>
      <path id="b718ca5b-49c6-4872-8836-2d5f6916e843" data-name="}" d="M574.38,31.9V11.76q45.47,0,60.42,19.23t15,55.24v112q0,33.87,27.47,54-27.47,29.3-27.47,55.85V421.92q0,41.5-17.4,56.15t-58,14.65V472.58q32.65,0,42.57-10.68t9.92-40V308.09q0-19.23,8.24-31.74,4.27-7.93,17.09-24.11-25.33-18.31-25.33-54v-112q0-29-9.77-41.66T574.38,31.9Z" stroke="#000" stroke-width="5"/>
      <path id="e620e199-c3d0-422c-a47d-25077a740b41" data-name="}-copy" d="M387.22,32.9V12.76q-45.47,0-60.42,19.23t-15,55.24v112q0,33.87-27.47,54,27.47,29.3,27.47,55.85V422.92q0,41.5,17.4,56.15t58,14.65V473.58q-32.65,0-42.57-10.68t-9.92-40V309.09q0-19.23-8.24-31.74-4.27-7.93-17.09-24.11,25.33-18.31,25.33-54v-112q0-29,9.77-41.66T387.22,32.9Z" stroke="#000" stroke-width="5"/>
    </g>
  </g>
</svg>
