<svg xmlns="http://www.w3.org/2000/svg" xmlns:xlink="http://www.w3.org/1999/xlink" version="1.1" id="Layer_1" x="0" y="0" viewBox="0 0 986.2 511.8" xml:space="preserve"><style type="text/css">
	.st0{fill:#16C800;}
	.st1{stroke:#000000;stroke-width:5;}
</style><g id="ded0d11c-6f65-47e9-912e-492c0c0fce20"><g id="c9f66c67-fbb8-4a4a-9143-efa3ccd5b0f9"><g id="_x37_0120730-6f83-4bdc-ab2e-0bdaec1296d0"><g id="_x37_b4550bc-8a8e-40ac-9c20-efe8bdba7f20"><g id="_x36_b05108f-da0a-4556-8db6-68f3e3b9f517"><path class="st0" d="M960.6 121.2c0 51.2-29.1 87.3-87.3 108.4 21.1 6.5 38.4 13.8 52 21.8 40.7 23.6 61 59 61 106.2 0 46.2-17.8 82.9-53.5 110.3s-83.3 41-143.1 41c-21.6 0-48.9-1.3-82.1-3.8s-57.5-3.8-73-3.8c-12.8 0-25.7 0.7-38.4 2.3l-35.4 4.5c-1.8 0.1-3.5 0.4-5.3 0.8h-5.3c-21.6-0.5-32.4-9.5-32.4-27.1 0-16.1 7.8-24.1 23.3-24.1 4 0 10.8 0.8 20.3 2.3 5.2 0.9 10.5 1.4 15.8 1.5 25.6 0 38.4-18.6 38.4-55.7V103.2c0-37.6-12.8-56.5-38.4-56.5 -5.3 0.1-10.6 0.6-15.8 1.5 -9.1 1.5-15.8 2.2-20.3 2.2 -15.6 0-23.3-8-23.3-24.1C517.9 8.8 529.4 0 552.5 0h9.8l36.9 5.3c10.5 1.5 24.8 2.3 42.9 2.3 19.1 0 46.2-1.5 81.3-4.5 23.6-2 48.9-3 76-3 50.7 0 90.2 10.7 118.6 32S960.6 83.1 960.6 121.2zM672.8 154.2c0 26.6 2.4 43.1 7.2 49.3 4.8 6.3 18 9.4 39.5 9.4h42.2c88.9 0 133.4-28.9 133.4-86.6 0-52.7-36.7-79.1-110-79.1 -51.2 0-82.7 3.3-94.5 9.8s-17.7 23.3-17.7 50.5L672.8 154.2zM672.8 306.4V390c0 32.7 5.5 52.8 16.6 60.3 11 7.5 41.2 11.3 90.4 11.3 93.9 0 140.8-35.1 140.8-105.4 0-64.8-45.2-97.1-135.6-97.1h-62.5c-27.1 0-42.7 6-46.7 18.1C673.8 283.1 672.8 292.9 672.8 306.4L672.8 306.4z"/></g><g id="a87aa0ab-a8ce-47c1-a937-1262c779bed2"><path class="st0" d="M57.5 229c14.6 7 33.3 13.1 55.9 18.1 -29.7 5.5-50.3 16.6-61.6 33.2s-17 44-17 82.2v35c0.5 2-16.2 82-16.2 86 0 36.2 14.2 27.2 43.7 27.2 38.9 0 36.6-16.2 33.6-27.2s0-3.1 0-24.1l0.8-61.1 -0.8-25.7V356c0-33.7 6.5-56 19.4-66.8S155 273 195.7 273h69.4c0 0 24.2 9.6 24.7 29.2v58.1c-0.5 37.2-1 58.4-2 63.4 -4.5 25.2-17.1 37.8-37.8 37.8 -7.1 0-12.4-0.5-15.9-1.5 -8.6-1.5-15.1-2.3-19.7-2.3 -16.1 0-24.2 8.6-24.2 25.7 0 18.1 10.8 27.2 32.5 27.2l11.3-1.5 40.8-5.3c13.8-1.9 27.7-2.9 41.6-3 17.7 0.2 35.4 1.4 52.9 3.8l36.3 4.5c8.1 1 11.8 1.5 11.3 1.5 21.7 0 32.5-9.1 32.5-27.2 0-16.1-7.8-24.1-23.5-24.1 -2.5 0-9.3 0.5-20.4 1.5 -5.2 1.5-10.5 2.2-15.9 2.3 -25.7 0-39.1-56.6-39.1-56.6V103.7c0-37.7 12.9-56.6 38.6-56.6 6.1 0.2 12.1 0.8 18.1 1.9 6 1.1 12.1 1.7 18.1 1.9 6.3 0.1 12.4-2.5 16.6-7.2 4.4-4.5 6.9-10.7 6.8-17C449 9.1 438 0.4 415.8 0.4c-2 0-5.5 0.2-10.6 0.8l-38.6 3.8c-10.1 1-22.7 1.5-37.8 1.5 -15.6 0-33-0.5-52.2-1.5l-57.4-3c-19.2-1-36.8-1.5-52.9-1.5C55.4 0.4 0 42.6 0 127.1 0 176.9 19.1 210.9 57.5 229zM267.8 222h-71.1c-42.4 0-74.1-6-95.3-18.1 -25.7-14.6-38.6-39-38.6-73.2 0-57.3 39.3-86 118-86 41.8 0 70.2 3.1 85.1 9.4 14.9 6.3 22.6 18.7 23 37.3l0.8 24.2v86.8c0 8.6-1.5 14-4.5 16.2S276.4 222 267.8 222z"/></g><path id="d2d17b7a-4d62-419b-b8d6-1d3ce864ed61" class="st1" d="M575.3 32.1V13.2c30.2 0 50.2 6.4 60.1 19.1s14.9 31.1 14.9 55v111.4c0 22.5 9.1 40.4 27.3 53.7 -18.2 19.4-27.3 38-27.3 55.5v113.3c0 27.5-5.8 46.2-17.3 55.9 -11.5 9.7-30.8 14.6-57.7 14.6v-18.9c21.6 0 35.6-3.6 42.2-10.7 6.5-7.1 9.8-20.5 9.8-40V308.3c0-12.8 2.7-23.4 8.2-31.7 2.8-5.3 8.5-13.3 16.9-24.1 -16.7-12.2-25.1-30.2-25.1-54v-112c0-19.3-3.2-33.2-9.7-41.7S597.1 32.2 575.3 32.1z"/><path id="e164e85e-07f6-497a-8b8d-0f27d3b4ab02" class="st1" d="M387.3 33.1V14.2c-30.2 0-50.2 6.4-60.1 19.1 -9.9 12.8-14.9 31.1-14.9 55v111.4c0 22.5-9.1 40.4-27.3 53.7 18.2 19.4 27.3 38 27.3 55.6v113.3c0 27.5 5.8 46.2 17.3 55.9 11.5 9.7 30.8 14.6 57.7 14.6v-18.9c-21.6 0-35.6-3.6-42.2-10.7s-9.8-20.5-9.8-40V309.3c0-12.8-2.7-23.4-8.2-31.7 -2.8-5.3-8.5-13.3-16.9-24.1 16.7-12.2 25.1-30.2 25.1-54v-112c0-19.3 3.2-33.2 9.7-41.7S365.5 33.2 387.3 33.1z"/></g></g></g></g></svg>