<svg version="1" xmlns="http://www.w3.org/2000/svg" width="1316" height="1316" viewBox="0 0 987.000000 987.000000"><path d="M147.8 237.5c-.2.2-4.6.6-9.8 1-5.2.4-11.1.9-13.1 1-2 .2-4.9.6-6.5.9-1.6.4-4.2.8-5.9 1-7.6 1.1-29.5 6.7-37 9.5-4.7 1.8-20.9 9.5-21.5 10.2-.3.3-1.6 1.2-3 1.9-7.5 3.9-20 15.2-27.7 25-7.2 9.2-16.1 27.4-17.8 36.6-.2 1-.4 1.9-.6 1.9-.1 0-.3.9-.5 2-.1 1.1-.5 3.2-.8 4.8-4 19-3.9 42 0 61.7 1.6 7.8 7 24.7 8.5 26.6.5.6 2 3.3 3.4 5.9 6 11.1 16.9 22.6 29.3 30.9 6.6 4.3 29.2 15.2 29.2 14 0-.2 1.2.2 2.8 1 3.8 2 24.4 8 31.7 9.2 4 .7 5.7 2.4 2.5 2.4-3.4 0-20.1 4.7-21.4 6-.5.5-1.8 1-2.7 1-4.3 0-28.9 15.7-28.9 18.4 0 .3-1.3 1.9-2.9 3.7-2.5 2.7-8 12.8-11.2 20.4-1.6 3.7-4.5 16-5.4 23-.3 2.2-.8 4.7-1 5.5-1.1 3.9-1.8 19.9-2 45-.2 25-.5 30.5-2 38-.3 1.4-.8 3.8-1.1 5.5-.3 1.6-1.2 6.4-2.1 10.5-.8 4.1-1.7 8.6-1.9 10-.5 2.5-2 10.4-3 15-.2 1.4-.7 4.2-1 6.3-.3 2.1-.9 5-1.5 6.4-.5 1.4-.7 2.8-.5 3 .3.3.1 1.6-.5 2.9-1.9 5.2-2.9 21-1.7 27.9 2.1 11.3 6.8 15 19.2 14.8 13.3-.2 34.9-1.2 37.5-1.8 1.4-.3 3.7-.7 5-1 4.9-.9 11.1-4.7 13.2-8.2 2.5-4 2.9-10.8 1-16.5-1.3-4-1.4-5.8-.6-17.8.5-8.6 1-77.8.6-96-.2-11 .6-38.8 1.2-39.8.3-.4.8-2.6 1.1-4.8.3-2.1.7-4.8 1-5.9 1.2-5.6 1.9-8.1 2.6-9 .4-.6 1-2.3 1.4-3.9.4-1.7 1.6-4.2 2.7-5.7 1-1.5 1.9-3.2 1.9-3.8 0-.6.5-1.1 1-1.1.6 0 1-.4 1-1 0-1.7 7.3-7.9 12.2-10.5 7.9-4.1 20-7.6 31.3-9 2.8-.4 6.1-.8 7.5-1.1 9.1-1.5 96.7-2.3 109.4-1 9.4.9 16.7 8.9 18.3 19.8.8 5.4.7 111.6-.1 121.8-1 13.7-3.5 22.7-8.2 30.2-7 11-19.7 17.3-32.8 16.2-7.3-.6-16-1.6-18.1-2.1-3.9-.8-8.1-1.2-14.5-1.3-16.1-.3-24.3 8.1-24.3 25 0 12 3.9 19.2 13.1 23.9 7.6 3.9 20.6 4.4 35.7 1.5 1.1-.2 4-.6 6.5-.9 2.5-.3 6.2-.8 8.3-1.1 2.1-.3 5.3-.7 7-.8 4.5-.5 13.7-1.7 15.8-2.1 1-.2 5.3-.7 9.6-1.1 4.3-.3 9.2-.8 10.8-1 9.4-1 47.7-.2 54.8 1.1 1.2.3 5.1.7 8.7 1 3.6.3 7.6.8 9 1 1.4.3 5.2.8 8.4 1.1 3.3.3 6.7.7 7.5.9 1.6.3 8.1 1.1 15.6 2 2.2.3 6.3.8 9 1.2 23.5 3.1 38.3-5.8 39-23.6.4-9.9-1-15.3-5.3-20.1-2.8-3.1-5-4.5-8.7-5.5-6.6-1.7-22.9-1-35.1 1.4-6.2 1.2-17.9.8-23.1-.9-4.4-1.5-11-5.8-13.8-9.2-5-5.8-8.4-15-11.2-29.8-1-5.5-.9-323.9.1-332.8 1.6-14 6.1-25.6 12.5-32.3 9.4-9.8 21-11.6 47.6-7.2 2.2.3 7.8.6 12.5.7 9 0 11.2-.8 17.3-6.3 6.6-5.9 9.1-17 6.1-26.6-3.7-12.1-15-17.6-34.6-17-4.6.2-10.1.6-12.3.9-2.2.3-7.4.8-11.5 1.1-4.1.3-8.6.8-10 1-2.7.4-14.6 1.5-22 2.1-6.4.4-52.6.4-64 0-5.2-.3-14.9-.7-21.5-1.1-6.6-.4-15.6-.8-20-1-4.4-.2-12.5-.7-18-1-26.1-1.4-34.9-1.6-59.7-1.9-14.7-.2-26.9-.2-27-.1zm54.2 44.9c19.4.6 22.6.8 33 2 13.9 1.7 23.1 3.8 30.5 7.1 2.2 1 4.3 1.9 4.6 1.9 2.5.4 11.1 9.4 13.3 13.8 5.8 11.8 5.9 14.4 6 89.8 0 48.3-.1 50.7-1.9 54.5-2 4.1-4.7 5.9-10 7-3 .5-93.8.7-103 .1-7.4-.5-20.7-1.8-23-2.2-1.1-.3-3.7-.7-5.8-1-5.1-.8-4-.5-17.7-3.9-17.7-4.3-34.9-13.8-45.3-25-3.2-3.4-11.7-16-11.7-17.3 0-.4-.8-2.6-1.9-4.8-1.6-3.4-3.9-12.1-5.6-21.9-.8-4.3-.7-23.2.1-28.5 1-6.8 1.1-7.3 1.8-10.5 3.8-15.5 13.2-29.9 25.7-39.3 12.9-9.6 33.1-17.2 52.9-19.7 1.9-.3 4.6-.7 6-1 1.4-.3 8.6-.8 16-1.1 7.4-.4 13.7-.8 13.8-1 .2-.1.9-.1 1.5.1.7.2 10 .6 20.7.9zM540.4 238.4c-11 2.1-18.2 7.9-20.9 16.9-2.5 8.5.1 22.4 5.2 26.9 4.9 4.5 16.8 6.5 26.8 4.7 9-1.6 16.5-2.3 26.5-2.3 9 0 11.2.4 15.5 2.4 8.6 4.2 12.2 8.5 18.6 22.1.9 1.9 3 12 3.1 15.1.1 1.3.5 2.8.9 3.3.4.6.4 1.6 0 2.3-.4.7-.5 3.2-.2 5.5.8 5.4.5 312.2-.3 320.2-.5 5.9-.9 8.2-2.3 14-.4 1.6-.7 3.2-.7 3.5-.1.3-1.5 3.5-3.3 7.1-3.8 7.7-8.3 12.1-16.1 15.7-4.9 2.3-7 2.6-15.2 2.6-9.1 0-19.6-.9-23.2-2-1-.3-5.2-.7-9.3-.9-18.8-1-27.8 7.6-26.9 25.7.2 4 .8 7.6 1.4 8.2.5.5 1 1.7 1 2.6 0 2.6 6.1 8.1 11.6 10.7 7.7 3.5 18.8 4.6 29.9 2.9 2.8-.5 6.1-.9 7.5-1.1 4-.4 13-1.6 20.1-2.5 3.6-.5 9.9-1.3 14-1.7 8.6-.9 60.9-.9 71.9 0 4.1.4 11.1.9 15.5 1.2 4.4.3 11.6.8 16 1.1 4.4.3 10.3.7 13 .9 2.8.2 8.8.6 13.5.9 35.5 2.4 71.6 2.5 92.5.1 7.1-.8 13.3-1.6 15.6-2 1.3-.3 4-.8 5.9-1.1 15-2.3 38.1-9.6 54-17.1 8-3.8 26.3-14.4 28-16.3.3-.3 2.8-2.3 5.5-4.5 11.7-9.2 25.9-24.8 31.5-34.5 4.3-7.4 11-21.4 11-23 0-.9.4-2 .9-2.6 1-1 5.6-19.3 6.6-25.9 1.3-8.9 1.3-34.2 0-42-1.9-11.3-2.5-14.7-3-15.5-.2-.3-.6-1.8-.9-3.2-.7-3.9-6.6-17.7-10.4-24.3-6.2-10.7-13.2-18.9-25.6-30-2.5-2.3-12.4-9.3-17.2-12.2-10.2-6.2-35.8-17.7-43.9-19.7-1-.3-1.7-.6-7.8-2.8l-2.8-1.1 5.1-1.8c17.6-6.2 39.7-19.8 51.9-31.9 11.2-11.1 20.9-26.2 24.6-38 2.2-7 4.3-17 5.1-23.5.5-4 .4-24.3 0-27.5-.3-1.4-.7-4.8-1.1-7.5-1.2-8.7-5.5-21.7-10.2-31.3-2.5-5-5-9.2-5.4-9.2-.5 0-.9-.5-.9-1.1 0-2.5-12.3-15.8-21.5-23.4-18-14.7-45.2-25.9-73.5-30.5-3.6-.5-7.6-1.2-9-1.5-13.5-2.7-69.5-2.6-107 .2-4.1.3-9.1.6-11 .8-4.9.3-21.8 1.7-26 2-27.1 2.4-83 2.4-95.8 0-1.8-.3-9.1-1.4-13.2-2-8.7-1.3-11.8-1.8-14-2.2-5.7-1-25.9-.9-31.6.1zM809 285.2c12.3 1.4 13.4 1.6 16.5 2.2 6 1.2 7.1 1.4 11.5 2.7 2.5.7 5 1.3 5.5 1.5 3.9.8 20.8 8.7 22.5 10.4.3.3 2.1 1.7 4 3.1 5.3 4 8.4 7.1 12.5 12.5 3.9 5 9.5 16.3 9.5 19 0 .8.4 2.3.9 3.2 1.5 2.9 2.2 8.3 2.6 20.7 1 34.6-13.5 59-43.9 73.4-6.4 3.1-15.7 6.6-19.8 7.7-1 .2-2.7.6-3.8.9-4.1 1-6.6 1.6-10 2.1-1.9.3-3.7.7-4 .9-.3.2-3.3.6-6.5 1-3.3.4-7.1.9-8.5 1.1-9.3 1.7-84.5 2.6-95.5 1.1-8.8-1.1-12.5-1.9-13.1-2.8-.3-.5-1.3-.9-2.3-.9-3.5 0-9.5-7.3-10.6-12.8-.2-1.2-.6-2.5-.9-3-.4-.7-1.1-5.9-2.2-17.7-.7-8-.6-75.7.2-82 1.4-11.4 2.3-15.2 5.4-22 2.7-6 9.2-13.5 11.7-13.5.7 0 1.3-.4 1.3-.8 0-1 15.1-4.8 22.5-5.7 2.8-.4 6.1-.8 7.5-1.1 1.4-.2 7.7-.6 14-1 6.3-.3 11.6-.7 11.7-.8.7-.7 55.1-.2 61.3.6zm2 212.2c3 .3 7.8.9 10.5 1.2 2.8.3 6.4.7 8 1 1.7.3 4.1.7 5.5.9 1.4.2 3.6.7 5 1 1.4.3 3.6.8 5 1.1 1.4.2 3.6.9 5 1.4 1.4.5 3.4 1.1 4.5 1.3 1.1.2 2.9.8 4 1.2 1.1.5 4.1 1.6 6.7 2.6 11.5 4.4 25.5 13.6 32.9 21.5 4 4.3 12.3 15.4 11.5 15.4-.3 0 .6 2.1 2 4.6 2.3 4.1 5 11.6 5.9 16.7.3 1 .6 2.6.9 3.5 2.8 8.8 2.4 38.4-.6 49.7-.5 2.2-1.2 4.7-1.3 5.6-1 5-6.5 18.5-8.8 21.4-.4.5-2.1 3-3.7 5.5-6.8 10.4-22.2 23.7-32.7 28.1-1.8.8-3.3 1.7-3.3 2.1 0 .5-.6.8-1.2.8-.7 0-4.4 1.3-8.3 2.9-5.7 2.3-11.6 4.1-18.7 5.7-.5.1-.9.2-1 .4-.5.3-8.3 1.8-13.8 2.5-1.9.3-5.1.8-7 1-17 2.6-82 2.5-95.4-.1-1.1-.2-4.1-.7-6.6-1-19.3-2.5-29.3-7.5-34.8-17.5-2.6-4.7-6-16.8-6.8-24.4-.3-3.3-.8-7.4-1-9-.5-4.5-.5-112.3 0-117.4 1.3-12.3 4.4-19 11-23 5.4-3.4 14.5-6.1 22.1-6.8 3.9-.3 7.1-.6 7.2-.7.6-.5 92.6.3 97.3.8z"/></svg>