<svg version="1" xmlns="http://www.w3.org/2000/svg" width="529.333" height="529.333" viewBox="0 0 397.000000 397.000000"><path d="M55.5 82.6c-30.1 4.5-44.4 16.2-47.7 39.1-.9 6.5-.9 10.1 0 16.5 2.8 19 12.3 29 34 35.3 4.2 1.3 7 2.5 6.2 2.8-22.3 7.3-26.5 14.1-27.6 44.2-.4 10.4-1.5 19.9-3.5 31-3.1 16.4-3.2 21.2-.2 23.6 2.2 1.9 19.6 1.3 23.4-.7l2.8-1.4.1-31.8c0-33.4.8-40.8 4.7-46 5.8-7.8 12.3-9.2 41.5-9.2 21.4 0 22.9.1 24.8 2 1.1 1.1 2.2 3 2.5 4.3.4 1.3.5 13.8.3 27.8-.3 28.5-.9 31.1-7.8 35.7-3.2 2.2-4.1 2.3-13.6 1.6-11.6-.8-13.7-.1-15.4 5.1-2.4 7.3 2.3 13.5 10.3 13.5 1.8 0 8.5-.7 14.8-1.5 14.9-2 30.8-2 47.8.1 16.5 2 20.4 1.5 23.1-2.9 2.4-3.8 2.5-6.8.5-10.6-1.9-3.7-4.5-4.3-15.8-3.5-11.6.8-14.8-.5-18-7.4-2.2-4.7-2.2-5.2-2.2-70.7 0-61.5.1-66.3 1.8-70.7 2.8-7.2 6.3-9.2 15.1-8.8 15 .7 15.7.6 17.7-1.9 4.5-5.5 3.1-12.3-3-14.8-3.1-1.3-5.6-1.4-18.7-.3-10 .9-21.7 1.1-35 .6-31.4-1-59.6-1.5-62.9-1zm45.8 17.9c14.7 3.1 15.7 5.4 15.7 37.8 0 19.4-.3 24.7-1.4 26.3-1.4 1.8-2.8 1.9-24.3 1.9-25.4-.1-33.9-1.1-43-5.4-11.7-5.5-17.5-14.8-17.7-28-.2-11.3 1.7-16.5 8.3-23.2 4.5-4.4 6.9-6 12.1-7.7 8.9-2.9 9.3-2.9 27.5-3 10.5-.1 18.3.3 22.8 1.3zM219.4 82.9c-5.3 2.3-7.2 10.7-3.5 15.2 2 2.5 2.8 2.6 18.4 1.9 7.7-.4 10.7 1.1 14.2 7.1 1.9 3.3 2 5.2 2 71.9 0 75.5.3 71.8-6.2 77-2.6 2.1-3.5 2.2-13.9 1.6-10.3-.5-11.3-.4-13.8 1.5-2.2 1.7-2.6 2.9-2.6 6.8 0 3.8.5 5.2 2.6 7.2 2.2 2.1 3.5 2.4 9.7 2.4 4 0 12.7-.6 19.5-1.3 10.4-1 16-1 36.5.4 29.8 2 50.6 1.5 62.7-1.6 22.1-5.5 38.9-19.3 44.5-36.5 1.6-4.7 2-8.8 2-18.6 0-12.5 0-12.5-3.8-20.1-5.7-11.5-17.9-21.3-32.2-25.8-2.2-.7-4.4-1.5-4.9-1.8-.5-.3 2.6-2.3 6.9-4.5 9.2-4.6 18-12.8 21.3-19.9 7.5-16.2 3.4-37-9.6-48.9-15-13.8-33.1-16.7-82.8-13.4-23.6 1.6-28.9 1.7-38.6.6-16.2-1.8-26-2.2-28.4-1.2zM325.2 100c22 2.5 32.2 12 32.2 30 0 15.8-8.3 25.5-25.9 30.5-7.7 2.2-44.8 3.3-51.2 1.6-7.2-2-7.8-4-7.8-28.1 0-19.4.1-20.8 2.3-25.2 3-6.1 7.2-7.8 21.7-8.8 16.4-1.1 19.2-1.1 28.7 0zm10.1 82.5c10.7 2.2 18.1 6.1 23.7 12.2 6.6 7.2 8.4 13.1 7.8 26.2-.4 11.7-3.3 18.5-10.4 25.1-9.8 9-21.8 12.1-46.4 12.1-16.5-.1-24.9-1-29.8-3.3-6.7-3.3-8.5-13.3-8-43.6.4-31.3-.9-30.1 33.3-30.1 16.2-.1 25 .4 29.8 1.4z"/></svg>