<?xml version="1.0" encoding="UTF-8"?>
<svg width="987px" height="512px" viewBox="0 0 987 512" version="1.1" xmlns="http://www.w3.org/2000/svg" xmlns:xlink="http://www.w3.org/1999/xlink">
    <!-- Generator: Sketch 43.1 (39012) - http://www.bohemiancoding.com/sketch -->
    <title>Top Copy</title>
    <desc>Created with Sketch.</desc>
    <defs></defs>
    <g id="Page-1" stroke="none" stroke-width="1" fill="none" fill-rule="evenodd">
        <g id="Top-Copy">
            <g id="B" transform="translate(518.000000, 0.000000)" fill="#16C800">
                <path d="M443.231008,121.502781 C443.231008,172.720515 414.108961,208.873667 355.863995,229.963322 C376.952689,236.491072 394.275286,243.771916 407.832304,251.80607 C448.503358,275.406398 468.83858,310.80636 468.83858,358.007016 C468.83858,404.203404 451.013879,440.984215 415.363943,468.350553 C379.714007,495.716891 332.014103,509.399855 272.262801,509.399855 C250.671995,509.399855 223.307313,508.144537 190.167936,505.633864 C157.028558,503.12319 132.676502,501.867873 117.111037,501.867873 C103.554019,501.867873 90.7503606,502.621063 78.6996779,504.127467 L43.3009744,508.646657 C42.2967509,508.646657 40.539386,508.89772 38.0288271,509.399855 L32.7566798,509.399855 C11.1658732,508.89772 0.37063188,499.859432 0.37063188,482.284719 C0.37063188,466.216411 8.15324773,458.182377 23.7187129,458.182377 C27.7356072,458.182377 34.5140145,458.935568 44.0541383,460.441972 C50.5815915,461.446241 55.8536861,461.948368 59.8705803,461.948368 C85.4782811,461.948368 98.2819394,443.369665 98.2819394,406.211701 L98.2819394,103.426024 C98.2819394,65.7659258 85.4782811,46.9361591 59.8705803,46.9361591 C55.3515743,46.9361591 50.0794797,47.4382862 44.0541383,48.4425555 C35.0161263,49.9489595 28.2377189,50.7021501 23.7187129,50.7021501 C8.15324773,50.7021501 0.37063188,42.6681163 0.37063188,26.5998077 C0.37063188,9.02509511 11.9190296,0.237870633 35.0161715,0.237870633 L44.8073022,0.237870633 L81.7123335,5.51025804 C92.2566809,7.01666198 106.566652,7.76985265 124.642676,7.76985265 C143.722924,7.76985265 170.836553,6.26347131 205.984378,3.25066344 C229.583631,1.24212486 254.939896,0.237870633 282.053932,0.237870633 C332.767222,0.237870633 372.307931,10.9080718 400.677247,32.2487942 C429.046563,53.5895166 443.231008,83.340548 443.231008,121.502781 Z M154.769232,153.890304 C154.769232,180.50344 157.154227,196.948103 161.924289,203.224786 C166.694351,209.501469 179.874588,212.639763 201.465394,212.639763 L243.642573,212.639763 C332.516358,212.639763 376.952584,183.767454 376.952584,126.02197 C376.952584,73.2978325 340.298974,46.9361591 266.990654,46.9361591 C215.775252,46.9361591 184.268211,50.1999853 172.468584,56.7277357 C160.668957,63.2554861 154.769232,80.0767444 154.769232,107.192015 L154.769232,153.890304 Z M154.769232,306.789539 L154.769232,390.394539 C154.769232,423.033291 160.292379,443.118375 171.338838,450.650395 C182.385297,458.182415 212.511552,461.948368 261.718507,461.948368 C355.61341,461.948368 402.560157,426.79947 402.560157,356.50062 C402.560157,291.725251 357.370774,259.338052 266.990654,259.338052 L204.47805,259.338052 C177.364014,259.338052 161.798782,265.363577 157.781888,277.414809 C155.773441,283.440424 154.769232,293.231903 154.769232,306.789539 Z"></path>
            </g>
            <g id="R" fill="#16C800">
                <path d="M392.393548,228.988388 C377.771268,236.033311 359.115536,242.071726 336.425791,247.103815 C366.174567,252.639112 386.721083,263.70954 398.065956,280.315431 C409.410828,296.921322 415.083179,324.345791 415.083179,362.589661 L415.083179,397.310896 C414.578962,399.323732 431.17601,479.333504 431.17601,483.359175 C431.17601,519.59021 417.100181,510.532315 387.855622,510.532315 C349.222671,510.532315 351.575226,494.32136 354.577496,483.359175 C357.579766,472.396989 354.577496,480.204639 354.577496,459.205272 L353.821175,398.065706 L354.577496,372.402184 L354.577496,355.796376 C354.577496,322.081385 348.148832,299.814729 335.29131,288.995739 C322.433788,278.17675 295.836764,272.767336 255.49944,272.767336 L185.161584,272.767336 C169.026655,272.767336 160.959311,282.579761 160.959311,302.204905 L160.959311,360.325233 C160.959311,397.562686 161.46352,418.697139 162.471953,423.729227 C167.009902,448.889668 179.615127,461.4697 200.288005,461.4697 C207.347037,461.4697 212.641231,460.966499 216.170747,459.960081 C224.742428,458.450455 231.297145,457.695653 235.835094,457.695653 C251.970023,457.695653 260.037367,466.250075 260.037367,483.359175 C260.037367,501.474692 249.196874,510.532315 227.515562,510.532315 L216.170747,509.022696 L175.329411,503.73903 C159.698698,501.726195 145.832951,500.719792 133.731754,500.719792 C118.605257,500.719792 100.957943,501.977795 80.7892813,504.493839 L44.4858717,509.022696 C36.4184069,510.029114 32.6368396,510.532315 33.1410561,510.532315 C11.4597447,510.532315 0.619251617,501.474692 0.619251617,483.359175 C0.619251617,467.256492 8.43449083,459.205272 24.0652037,459.205272 C26.5862864,459.205272 33.3931077,459.708473 44.4858717,460.714891 C50.0322536,462.224517 55.3264479,462.979319 60.3686134,462.979319 C86.0836572,462.979319 98.9409862,444.109271 98.9409862,406.36861 L98.9409862,103.690018 C98.9409862,65.9493564 86.0836572,47.0793087 60.3686134,47.0793087 C56.334881,47.0793087 50.2843733,47.7083103 42.2169086,48.9663323 C34.1494438,50.2243544 28.0989361,50.853356 24.0652037,50.853356 C17.5103886,50.853356 11.9640898,48.4631499 7.42614093,43.6826661 C2.88819203,38.9021823 0.619251617,33.241168 0.619251617,26.6994534 C0.619251617,9.08714465 11.7118492,0.281122382 33.8973772,0.281122382 C35.9142433,0.281122382 39.4437062,0.532723018 44.4858717,1.03593184 L83.0582444,4.80997912 C93.1425753,5.81639676 105.7478,6.31959803 120.874296,6.31959803 C136.505009,6.31959803 153.900219,5.81639676 173.060448,4.80997912 L230.540846,1.79074129 C249.701075,0.784323654 267.348389,0.281122382 283.483319,0.281122382 C394.410959,0.281122382 449.873946,42.5500292 449.873946,127.089111 C449.873946,176.906784 430.714005,210.87287 392.393548,228.988388 Z M182.892621,222.195103 L253.986798,222.195103 C296.340988,222.195103 328.106154,216.156687 349.283249,204.079676 C374.998293,189.48662 387.855622,165.081358 387.855622,130.863158 C387.855622,73.4973528 348.527321,44.8148803 269.86954,44.8148803 C228.019567,44.8148803 199.657812,47.9598883 184.783424,54.2499985 C169.909036,60.5401088 162.219849,72.9943403 161.715632,91.6130666 L160.959311,115.766969 L160.959311,202.570057 C160.959311,211.124607 162.471938,216.53402 165.497237,218.79846 C168.522537,221.0629 174.32094,222.195103 182.892621,222.195103 Z" transform="translate(225.246599, 255.909945) scale(-1, 1) translate(-225.246599, -255.909945) "></path>
            </g>
            <path d="M575,32.1416016 L575,12 C605.314279,12 625.455679,18.4086273 635.424805,31.2260742 C645.39393,44.0435211 650.378418,62.4556091 650.378418,86.4628906 L650.378418,198.462402 C650.378418,221.045523 659.5336,239.050714 677.844238,252.478516 C659.5336,272.009863 650.378418,290.6254 650.378418,308.325684 L650.378418,422.15625 C650.378418,449.825659 644.580136,468.54292 632.983398,478.308594 C621.386661,488.074268 602.059055,492.957031 575,492.957031 L575,472.81543 C596.769315,472.81543 610.959846,469.255081 617.572021,462.134277 C624.184196,455.013474 627.490234,441.687598 627.490234,422.15625 L627.490234,308.325684 C627.490234,295.508237 630.236789,284.928915 635.72998,276.587402 C638.578302,271.297662 644.27486,263.261447 652.819824,252.478516 C635.933347,240.271423 627.490234,222.266232 627.490234,198.462402 L627.490234,86.4628906 C627.490234,67.1349945 624.235059,53.2496353 617.724609,44.8063965 C611.21416,36.3631577 596.972766,32.1416016 575,32.1416016 Z" id="}" stroke="#000000" stroke-width="5" fill="#000000"></path>
            <path d="M285,33.1416016 L285,13 C315.314279,13 335.455679,19.4086273 345.424805,32.2260742 C355.39393,45.0435211 360.378418,63.4556091 360.378418,87.4628906 L360.378418,199.462402 C360.378418,222.045523 369.5336,240.050714 387.844238,253.478516 C369.5336,273.009863 360.378418,291.6254 360.378418,309.325684 L360.378418,423.15625 C360.378418,450.825659 354.580136,469.54292 342.983398,479.308594 C331.386661,489.074268 312.059055,493.957031 285,493.957031 L285,473.81543 C306.769315,473.81543 320.959846,470.255081 327.572021,463.134277 C334.184196,456.013474 337.490234,442.687598 337.490234,423.15625 L337.490234,309.325684 C337.490234,296.508237 340.236789,285.928915 345.72998,277.587402 C348.578302,272.297662 354.27486,264.261447 362.819824,253.478516 C345.933347,241.271423 337.490234,223.266232 337.490234,199.462402 L337.490234,87.4628906 C337.490234,68.1349945 334.235059,54.2496353 327.724609,45.8063965 C321.21416,37.3631577 306.972766,33.1416016 285,33.1416016 Z" id="}-copy" stroke="#000000" stroke-width="5" fill="#000000" transform="translate(336.422119, 253.478516) scale(-1, 1) translate(-336.422119, -253.478516) "></path>
        </g>
    </g>
</svg>