<svg version="1" xmlns="http://www.w3.org/2000/svg" width="529.333" height="529.333" viewBox="0 0 397.000000 397.000000"><path d="M67.7 81.6c-.1.1-3.8.4-8.2.7-26.7 1.9-43.5 12-50 30.2-2.3 6.6-2.9 24.2-1.1 31.1 1.9 7.3 6.3 14.9 10.9 19.1 4.6 4.1 13.8 8.6 22.9 11.2 3.6 1.1 5.7 2.1 4.8 2.5-.8.3-4.2 1.5-7.4 2.7-13.6 5-18.5 14.8-19.2 38.8-.5 16.6-.8 18.9-3.4 32.1-1.1 5.8-2.3 12.4-2.6 14.7-.7 4.6 1 10.8 3 11.6 2.2.9 18.9 0 21.8-1.1 1.4-.6 2.9-1.6 3.4-2.3.4-.7.7-14.8.7-31.4 0-16.6.4-32.9 1-36.1 2.1-12.1 7.8-16.8 22.7-18.9 5.4-.8 42.3-.8 44.7-.1 1.2.4 2.9 2.3 3.8 4.3 1.5 3.1 1.7 6.6 1.3 29.2-.4 24.1-.5 25.9-2.6 29.8-3.9 7.5-7.3 8.5-23 7-5.5-.5-6.6-.3-8.8 1.6-3 2.6-4.1 9-2.2 12.7 1.6 3 7.1 5.8 10.7 5.4 10.6-1.1 14.4-1.6 20-2.5 6.5-1 27.6-1.4 30.2-.5.8.3 4.1.7 7.4 1.1 3.3.3 7.4.7 9 1 6.7 1 13.7.6 16.1-1 5-3.2 5.7-12.2 1.2-15.9-2.1-1.6-3.4-1.8-12.5-1.2-15.2 1.1-19.2-1.7-21.1-14.2-.4-2.6-.7-32.4-.7-66.2.1-64 .3-67.6 4.4-72.6 3.6-4.5 7.2-5.2 19.8-3.9 7.1.8 7.2.8 10.4-2.4 2.8-2.8 3.1-3.7 2.6-7.3-.3-2.2-1.5-5-2.7-6.2-1.9-2-2.9-2.1-14.8-1.7-25.9.9-65.9.3-89-1.3-1.8-.1-3.3-.1-3.5 0zm33.8 18.8c6.3 1.5 11.3 4.6 13.2 8.4 1.5 3.2 1.8 6.8 2.1 27.6.2 13.1.1 24.9-.2 26.2-.9 3.4-4.3 3.9-25.4 3.8-26.3-.1-33.6-1.2-44-6.1-12.4-6-18.8-20.2-15.9-35.7 2.2-12.3 9.5-19.4 24.2-23.7 4.9-1.4 9.3-1.7 24.5-1.5 10.2.2 19.9.6 21.5 1zM227.9 81.4c-.2.2-2.4.6-4.8.9-5.9.6-9.3 4.1-9.4 9.6-.1 3 .5 4.7 2.4 6.7 2.3 2.5 2.8 2.6 9.4 2 15.6-1.4 19.5-.2 23.1 7.1 1.8 3.6 1.9 7.3 1.9 71.3v67.5l-2.3 4.2c-3.4 6.5-6.6 7.7-18.1 6.9-11.8-.9-14.6 0-16 4.9-1.9 7.1 2.2 13.1 9.5 13.7 2.6.2 14.2-.9 19.9-1.8 3.2-.6 32.3-.6 33.2-.1.9.6 29.2 2 40.3 2 18.5.1 32.7-2.9 46-9.9 14.4-7.5 23.3-18.3 28.1-33.9 1.3-4.1 1.6-18.7.6-24-3.4-17.5-14.9-29-37-37l-4.7-1.8 5-2.3c11.9-5.5 19.5-12.6 24.2-22.3 2.5-5.3 3.1-7.9 3.3-14.4.6-19.8-7.4-33.3-24.9-41.6-11.6-5.6-20.9-7.3-40.1-7.2-11.8.1-16 .3-34 1.7-13.3 1-32.3 1.1-38 .2-2.7-.4-7.5-1.1-10.5-1.4-3-.3-5.8-.8-6.1-1-.3-.2-.8-.2-1 0zm101.9 19.5c7.1 1.1 15.4 4.7 19.3 8.2 10.9 9.9 11.1 30.8.4 41.5-9.1 9.1-22.1 12.2-49.8 12-21.2-.1-23.7-.7-25.8-6.4-1.5-3.8-1.7-35.8-.4-42.7 2-9.6 5.8-11.9 22-13.1 4.4-.4 8.1-.7 8.2-.8.7-.5 21 .5 26.1 1.3zm4.8 81.6c14.9 2.6 26.1 10.7 30.2 21.8 2.5 6.6 2.8 19.4.7 26.4-3.9 13.1-16.7 23.5-31.9 25.8-8.8 1.3-13.2 1.7-23.1 1.6-13.7 0-21.5-.8-27.7-2.7-8.7-2.8-10-7.6-10.2-37.9-.2-29.9.3-32.5 7.7-35.2 4.4-1.6 44.8-1.5 54.3.2z"/></svg>